<svg xmlns="http://www.w3.org/2000/svg" width="123.436" height="47.539" viewBox="0 0 123.436 47.539"><defs><style>.a{fill:#fff;}</style></defs><g transform="translate(-9 -4)"><g transform="translate(9 4)"><path class="a" d="M1067.741-483.824v6.612h-22.13v-6.612Zm-8.142-8.688v26.283a3.6,3.6,0,0,0,.956,2.814,3.855,3.855,0,0,0,2.65.847,7.6,7.6,0,0,0,2.268-.3,5.354,5.354,0,0,0,1.721-.9l.984,5.737a10.354,10.354,0,0,1-3.443,1.53,16.7,16.7,0,0,1-4.262.547,14.954,14.954,0,0,1-5.382-.875,7.023,7.023,0,0,1-3.5-2.787,9.594,9.594,0,0,1-1.284-5.082v-25.245Z" transform="translate(-1045.611 495.408)"/><path class="a" d="M1145.546-502.479v29.616a4.221,4.221,0,0,0,.6,2.568,2.418,2.418,0,0,0,2.021.765,7.084,7.084,0,0,0,1.366-.109q.545-.109,1.311-.328l-.6,5.573a8.978,8.978,0,0,1-2.568.984,13.278,13.278,0,0,1-3.115.383q-4.372,0-6.339-2.022t-1.967-6.612v-30.818Z" transform="translate(-1109.919 502.479)"/><path class="a" d="M1204.53-446.021a5.634,5.634,0,0,1,3.333.929,5.546,5.546,0,0,1,1.94,2.432,8.65,8.65,0,0,1,.628,3.361,10.991,10.991,0,0,1-1.065,4.726,14.04,14.04,0,0,1-2.787,3.989,12.075,12.075,0,0,1-3.743,2.6l-3.77-2.787a12.757,12.757,0,0,0,2.814-1.53,13.455,13.455,0,0,0,2.241-2.022,8.541,8.541,0,0,0,1.448-2.24l-.273-.164a1.86,1.86,0,0,1-.71.328,4.9,4.9,0,0,1-1.148.109,4.534,4.534,0,0,1-1.995-.492,4.374,4.374,0,0,1-1.694-1.475,4.306,4.306,0,0,1-.683-2.514,5.108,5.108,0,0,1,.765-2.9,4.949,4.949,0,0,1,2.022-1.749A6.129,6.129,0,0,1,1204.53-446.021Zm.164-18.469a5.766,5.766,0,0,1,4.016,1.311,4.691,4.691,0,0,1,1.448,3.661,4.622,4.622,0,0,1-1.448,3.606,5.766,5.766,0,0,1-4.016,1.312,5.786,5.786,0,0,1-3.989-1.312,4.577,4.577,0,0,1-1.475-3.606,4.645,4.645,0,0,1,1.475-3.661A5.786,5.786,0,0,1,1204.694-464.49Z" transform="translate(-1154.479 475.528)"/><path class="a" d="M1265.422-463.027a10.556,10.556,0,0,1-5.929-1.667,10.784,10.784,0,0,1-3.934-4.836,18.791,18.791,0,0,1-1.394-7.6,18.612,18.612,0,0,1,1.448-7.759,11.174,11.174,0,0,1,4.043-4.863,10.705,10.705,0,0,1,5.984-1.694,8.092,8.092,0,0,1,5.983,2.268,10.728,10.728,0,0,1,2.924,5.765l-.874,1.147v-20.218h9.289v38.905h-8.306l-.6-9.289,1.093.82a10.808,10.808,0,0,1-1.667,4.754,9.472,9.472,0,0,1-3.388,3.142A9.586,9.586,0,0,1,1265.422-463.027Zm3.224-6.83a4.354,4.354,0,0,0,2.7-.847,5.3,5.3,0,0,0,1.721-2.541,12.506,12.506,0,0,0,.6-4.153,11.708,11.708,0,0,0-.574-3.907,5.148,5.148,0,0,0-1.694-2.459,4.359,4.359,0,0,0-2.705-.847,4.568,4.568,0,0,0-3.8,1.776q-1.393,1.776-1.393,5.6t1.366,5.6A4.491,4.491,0,0,0,1268.645-469.857Z" transform="translate(-1193.568 502.479)"/><path class="a" d="M1385.7-462.61h9.617l-9.836,27.321h-11.093l-9.836-27.321h9.781l5.628,20.819Z" transform="translate(-1271.886 474.194)"/></g></g></svg>